<svg width="28" height="22" viewBox="0 0 28 22" fill="none" xmlns="http://www.w3.org/2000/svg">
    <path d="M26.5634 3.7075C26.026 3.14458 25.284 2.81195 24.4396 2.81195H20.1921V2.76077C20.1921 2.12109 19.9363 1.50699 19.5013 1.0976C19.0663 0.662612 18.4778 0.406738 17.8381 0.406738H10.1619C9.49663 0.406738 8.90812 0.662612 8.47313 1.0976C8.03815 1.53258 7.78228 2.12109 7.78228 2.76077V2.81195H3.56037C2.71598 2.81195 1.97395 3.14458 1.43662 3.7075C0.899284 4.24484 0.541061 5.01246 0.541061 5.83125V18.5737C0.541061 19.4181 0.873697 20.1602 1.43662 20.6975C1.97395 21.2348 2.74157 21.5931 3.56037 21.5931H24.4396C25.284 21.5931 26.026 21.2604 26.5634 20.6975C27.1007 20.1602 27.4589 19.3925 27.4589 18.5737V5.83125C27.4589 4.98687 27.1263 4.24484 26.5634 3.7075ZM26.1284 18.5737H26.1028C26.1028 19.0343 25.9237 19.4437 25.6166 19.7508C25.3096 20.0578 24.9002 20.2369 24.4396 20.2369H3.56037C3.09979 20.2369 2.6904 20.0578 2.38335 19.7508C2.0763 19.4437 1.89719 19.0343 1.89719 18.5737V5.83125C1.89719 5.37068 2.0763 4.96128 2.38335 4.65423C2.6904 4.34719 3.09979 4.16808 3.56037 4.16808H8.49872C8.88253 4.16808 9.18958 3.86103 9.18958 3.47722V2.73519C9.18958 2.45372 9.29193 2.19785 9.47104 2.01874C9.65015 1.83963 9.90602 1.73728 10.1875 1.73728H17.8381C18.1196 1.73728 18.3754 1.83963 18.5545 2.01874C18.7337 2.19785 18.836 2.45372 18.836 2.73519V3.47722C18.836 3.86103 19.1431 4.16808 19.5269 4.16808H24.4652C24.9258 4.16808 25.3352 4.34719 25.6422 4.65423C25.9493 4.96128 26.1284 5.37068 26.1284 5.83125V18.5737Z" fill="#413E3E"/>
    <path d="M14.0003 5.9082C12.2603 5.9082 10.6739 6.62465 9.54807 7.75049C8.39664 8.90192 7.70578 10.4627 7.70578 12.2027C7.70578 13.9426 8.42223 15.529 9.54807 16.6549C10.6995 17.8063 12.2603 18.4972 14.0003 18.4972C15.7402 18.4972 17.3266 17.7807 18.4525 16.6549C19.6039 15.5035 20.2947 13.9426 20.2947 12.2027C20.2947 10.4627 19.5783 8.87633 18.4525 7.75049C17.3266 6.62465 15.7402 5.9082 14.0003 5.9082ZM17.4801 15.7082C16.5846 16.5781 15.3564 17.141 14.0003 17.141C12.6441 17.141 11.4159 16.5781 10.5204 15.7082C9.62483 14.8126 9.0875 13.5844 9.0875 12.2283C9.0875 10.8721 9.65042 9.64395 10.5204 8.7484C11.4159 7.85284 12.6441 7.31551 14.0003 7.31551C15.3564 7.31551 16.5846 7.87843 17.4801 8.7484C18.3757 9.64395 18.913 10.8721 18.913 12.2283C18.9386 13.5844 18.3757 14.8126 17.4801 15.7082Z" fill="#413E3E"/>
    <path d="M23.109 8.39013C23.8014 8.39013 24.3628 7.82879 24.3628 7.13635C24.3628 6.4439 23.8014 5.88257 23.109 5.88257C22.4165 5.88257 21.8552 6.4439 21.8552 7.13635C21.8552 7.82879 22.4165 8.39013 23.109 8.39013Z" fill="#413E3E"/>
</svg>
