<svg width="22" height="24" viewBox="0 0 22 24" fill="none" xmlns="http://www.w3.org/2000/svg">
    <path d="M18.7115 0H5.20862C3.63093 0.000731429 2.35203 1.27945 2.35148 2.85714V4.09143H1.00862C0.692921 4.09143 0.437195 4.34734 0.437195 4.66286C0.437195 4.97838 0.692921 5.23429 1.00862 5.23429H2.34558V8.98286H1.00862C0.692921 8.98286 0.437195 9.23858 0.437195 9.55429C0.437195 9.86981 0.692921 10.1257 1.00862 10.1257H2.34558V13.8743H1.00862C0.692921 13.8743 0.437195 14.1302 0.437195 14.4457C0.437195 14.7614 0.692921 15.0171 1.00862 15.0171H2.34558V18.7657H1.00862C0.692921 18.7657 0.437195 19.0216 0.437195 19.3371C0.437195 19.6527 0.692921 19.9086 1.00862 19.9086H2.34558V21.1429C2.34631 22.7205 3.62503 23.9993 5.20273 24H18.7056C20.2833 23.9993 21.5624 22.7205 21.5628 21.1429V2.85714C21.5651 1.28055 20.2881 0.00105143 18.7115 0ZM20.4258 21.1429C20.4229 22.0884 19.657 22.8544 18.7115 22.8571H5.20862C4.26307 22.8544 3.49703 22.0884 3.49434 21.1429V19.9086H4.8313C5.147 19.9086 5.40273 19.6527 5.40273 19.3371C5.40273 19.0216 5.147 18.7657 4.8313 18.7657H3.49434V15.0171H4.8313C5.147 15.0171 5.40273 14.7614 5.40273 14.4457C5.40273 14.1302 5.147 13.8743 4.8313 13.8743H3.49434V10.1257H4.8313C5.147 10.1257 5.40273 9.86981 5.40273 9.55429C5.40273 9.23858 5.147 8.98286 4.8313 8.98286H3.49434V5.23429H4.8313C5.147 5.23429 5.40273 4.97838 5.40273 4.66286C5.40273 4.34734 5.147 4.09143 4.8313 4.09143H3.49434V2.85714C3.49703 1.91159 4.26307 1.14555 5.20862 1.14286H18.7115C19.657 1.14555 20.4229 1.91159 20.4258 2.85714V21.1429Z" fill="#413E3E"/>
    <path d="M11.9571 11.8339C13.4876 11.8339 14.7286 10.5932 14.7286 9.06244C14.7286 7.5317 13.4876 6.29102 11.9571 6.29102C10.4264 6.29102 9.1857 7.5317 9.1857 9.06244C9.18712 10.5925 10.4269 11.8325 11.9571 11.8339ZM11.9571 7.42816C12.8564 7.42816 13.5857 8.15744 13.5857 9.05673C13.5857 9.95602 12.8564 10.6853 11.9571 10.6853C11.0577 10.6853 10.3286 9.95602 10.3286 9.05673C10.3302 8.15817 11.0582 7.42976 11.9571 7.42816ZM11.9571 12.7539C9.57999 12.7539 7.71695 14.6796 7.71695 17.1424C7.71786 17.4576 7.97322 17.713 8.28838 17.7139H15.6257C15.9409 17.713 16.1962 17.4576 16.1971 17.1424C16.1971 14.6796 14.3341 12.7539 11.9571 12.7539ZM8.90552 16.571C9.15142 15.011 10.38 13.8967 11.9571 13.8967C13.5341 13.8967 14.7686 15.011 15.0086 16.571H8.90552Z" fill="#413E3E"/>
</svg>
