<svg width="12" height="14" viewBox="0 0 12 14" fill="none" xmlns="http://www.w3.org/2000/svg">
    <path d="M9.575 4.635H3.645V3.375C3.64589 2.82719 3.83597 2.2965 4.18308 1.8727C4.5302 1.44889 5.01304 1.15799 5.54994 1.0492C6.08685 0.94041 6.64484 1.02041 7.12956 1.27566C7.61427 1.53091 7.99593 1.94575 8.21 2.45C8.32 2.705 8.61 2.825 8.865 2.715C9.12 2.61 9.24 2.315 9.13 2.06C8.87171 1.4488 8.43888 0.927362 7.8857 0.560943C7.33251 0.194523 6.68354 -0.000597818 6.02 1.3759e-06C4.16 1.3759e-06 2.645 1.515 2.645 3.375V4.635H2.425C1.32 4.635 0.425003 5.53 0.425003 6.635V12C0.425003 13.105 1.32 14 2.425 14H9.575C10.68 14 11.575 13.105 11.575 12V6.635C11.575 5.535 10.68 4.635 9.575 4.635ZM10.575 12C10.575 12.55 10.125 13 9.575 13H2.425C1.875 13 1.425 12.55 1.425 12V6.635C1.425 6.085 1.875 5.635 2.425 5.635H9.575C10.125 5.635 10.575 6.085 10.575 6.635V12ZM6.9 9.175C6.9 9.485 6.74 9.765 6.5 9.925V11.15C6.5 11.425 6.275 11.65 6 11.65C5.725 11.65 5.5 11.425 5.5 11.15V9.925C5.26 9.765 5.1 9.485 5.1 9.175C5.1 8.93631 5.19482 8.70739 5.36361 8.53861C5.53239 8.36982 5.76131 8.275 6 8.275C6.2387 8.275 6.46762 8.36982 6.6364 8.53861C6.80518 8.70739 6.9 8.93631 6.9 9.175Z" fill="white"/>
</svg>
