<svg width="30" height="30" viewBox="0 0 30 30" fill="none" xmlns="http://www.w3.org/2000/svg">
    <path d="M14.9457 29.333C12.5425 29.3485 10.1748 28.752 8.06574 27.5997C8.0235 27.5821 7.97818 27.573 7.93241 27.573C7.88664 27.573 7.84133 27.5821 7.79908 27.5997L3.09241 28.9331C2.80435 29.0247 2.49666 29.0356 2.20282 28.9646C1.90898 28.8937 1.64023 28.7435 1.42578 28.5304C1.21134 28.3173 1.05942 28.0495 0.986539 27.7562C0.913657 27.4628 0.922605 27.155 1.01241 26.8664L2.42574 22.133C2.45644 22.0514 2.45644 21.9614 2.42574 21.8797C0.980281 19.2379 0.40363 16.2078 0.777635 13.2197C1.15164 10.2316 2.4573 7.43718 4.50931 5.23308C6.56131 3.02898 9.2554 1.52718 12.2092 0.940833C15.163 0.354486 18.2265 0.71338 20.9648 1.96658C23.703 3.21978 25.9771 5.30361 27.4641 7.92231C28.9511 10.541 29.5755 13.5616 29.2487 16.5552C28.9219 19.5489 27.6605 22.3636 25.6436 24.5998C23.6266 26.836 20.9566 28.3801 18.0124 29.0131C17.0036 29.2228 15.9761 29.33 14.9457 29.333ZM7.89241 25.5064C8.28825 25.5118 8.67698 25.6124 9.02574 25.7997C10.7512 26.746 12.6781 27.2656 14.6454 27.3152C16.6127 27.3648 18.5633 26.9429 20.3343 26.0848C22.1052 25.2267 23.6451 23.9572 24.8254 22.3825C26.0056 20.8078 26.7919 18.9735 27.1185 17.0329C27.4451 15.0922 27.3026 13.1016 26.7029 11.2273C26.1032 9.35299 25.0637 7.64939 23.6712 6.25882C22.2787 4.86825 20.5737 3.83108 18.6985 3.23395C16.8234 2.63683 14.8326 2.49708 12.8924 2.82638C10.9485 3.14935 9.11054 3.93439 7.53315 5.11549C5.95576 6.29659 4.68506 7.8392 3.82792 9.61359C2.97078 11.388 2.55226 13.3423 2.60757 15.312C2.66288 17.2818 3.19039 19.2096 4.14574 20.9331C4.29596 21.2051 4.39096 21.5042 4.42528 21.8131C4.4596 22.122 4.43257 22.4346 4.34574 22.7331L3.10574 26.8531L7.22574 25.6131C7.44153 25.545 7.66616 25.5091 7.89241 25.5064Z" fill="white"/>
    <path d="M9.61236 17.2664C10.5328 17.2664 11.279 16.5202 11.279 15.5998C11.279 14.6793 10.5328 13.9331 9.61236 13.9331C8.69189 13.9331 7.94569 14.6793 7.94569 15.5998C7.94569 16.5202 8.69189 17.2664 9.61236 17.2664Z" fill="white"/>
    <path d="M14.9456 17.2664C15.8661 17.2664 16.6123 16.5202 16.6123 15.5998C16.6123 14.6793 15.8661 13.9331 14.9456 13.9331C14.0251 13.9331 13.2789 14.6793 13.2789 15.5998C13.2789 16.5202 14.0251 17.2664 14.9456 17.2664Z" fill="white"/>
    <path d="M20.2791 17.2664C21.1996 17.2664 21.9457 16.5202 21.9457 15.5998C21.9457 14.6793 21.1996 13.9331 20.2791 13.9331C19.3586 13.9331 18.6124 14.6793 18.6124 15.5998C18.6124 16.5202 19.3586 17.2664 20.2791 17.2664Z" fill="white"/>
</svg>
