<svg width="16" height="16" viewBox="0 0 16 16" fill="none" xmlns="http://www.w3.org/2000/svg">
    <path d="M11.04 0.5H4.96C4.559 0.500463 4.17456 0.659964 3.89101 0.943513C3.60746 1.22706 3.44796 1.6115 3.4475 2.0125V5.526H2.51775C2.29209 5.52626 2.07575 5.61604 1.9162 5.77563C1.75666 5.93522 1.66695 6.15159 1.66675 6.37725V9.6225C1.66695 9.84816 1.75666 10.0645 1.9162 10.2241C2.07575 10.3837 2.29209 10.4735 2.51775 10.4738H3.4475V13.9875C3.44796 14.3885 3.60746 14.7729 3.89101 15.0565C4.17456 15.34 4.559 15.4995 4.96 15.5H11.04C11.441 15.4995 11.8254 15.34 12.109 15.0565C12.3925 14.7729 12.552 14.3885 12.5525 13.9875V10.474H13.4822C13.7079 10.4737 13.9242 10.384 14.0838 10.2244C14.2433 10.0648 14.333 9.84841 14.3332 9.62275V6.3775C14.333 6.15184 14.2433 5.93547 14.0838 5.77588C13.9242 5.61629 13.7079 5.52651 13.4822 5.52625H12.5525V2.0125C12.552 1.6115 12.3925 1.22706 12.109 0.943513C11.8254 0.659964 11.441 0.500463 11.04 0.5ZM3.9475 2.0125C3.94776 1.74405 4.05452 1.48667 4.24434 1.29685C4.43417 1.10702 4.69155 1.00026 4.96 1H11.04C11.3084 1.00026 11.5658 1.10702 11.7557 1.29685C11.9455 1.48667 12.0522 1.74405 12.0525 2.0125V5.526H3.9475V2.0125ZM12.0525 13.9875C12.0522 14.256 11.9455 14.5133 11.7557 14.7032C11.5658 14.893 11.3084 14.9997 11.04 15H4.96C4.69155 14.9997 4.43417 14.893 4.24434 14.7032C4.05452 14.5133 3.94776 14.256 3.9475 13.9875V10.474H12.0525V13.9875ZM13.8332 6.37725V9.6225C13.8332 9.81625 13.6757 9.97375 13.4822 9.97375H2.5175C2.324 9.97375 2.1665 9.81625 2.1665 9.6225V6.3775C2.1665 6.18375 2.324 6.02625 2.5175 6.02625H13.4825C13.676 6.02625 13.8335 6.18375 13.8335 6.3775L13.8332 6.37725Z" fill="white"/>
    <path d="M6.94426 14.2962H9.05576C9.12206 14.2962 9.18565 14.2699 9.23253 14.223C9.27942 14.1761 9.30576 14.1125 9.30576 14.0462C9.30576 13.9799 9.27942 13.9163 9.23253 13.8695C9.18565 13.8226 9.12206 13.7962 9.05576 13.7962H6.94426C6.87795 13.7962 6.81436 13.8226 6.76748 13.8695C6.72059 13.9163 6.69426 13.9799 6.69426 14.0462C6.69426 14.1125 6.72059 14.1761 6.76748 14.223C6.81436 14.2699 6.87795 14.2962 6.94426 14.2962ZM8.69451 1.70374H6.94451C6.8782 1.70374 6.81461 1.73007 6.76773 1.77696C6.72084 1.82384 6.69451 1.88743 6.69451 1.95374C6.69451 2.02004 6.72084 2.08363 6.76773 2.13051C6.81461 2.1774 6.8782 2.20374 6.94451 2.20374H8.69451C8.76081 2.20374 8.8244 2.1774 8.87128 2.13051C8.91817 2.08363 8.94451 2.02004 8.94451 1.95374C8.94451 1.88743 8.91817 1.82384 8.87128 1.77696C8.8244 1.73007 8.76081 1.70374 8.69451 1.70374ZM3.18301 8.53873C3.19973 8.56699 3.22186 8.59167 3.24813 8.61136C3.2744 8.63106 3.3043 8.64538 3.33611 8.6535C3.36792 8.66163 3.40103 8.66341 3.43352 8.65873C3.46602 8.65405 3.49728 8.64301 3.52551 8.62624L3.84201 8.43874V8.80674C3.84201 8.87304 3.86834 8.93663 3.91523 8.98351C3.96211 9.0304 4.0257 9.05674 4.09201 9.05674C4.15831 9.05674 4.2219 9.0304 4.26878 8.98351C4.31567 8.93663 4.34201 8.87304 4.34201 8.80674V8.43874L4.65876 8.62624C4.68696 8.64307 4.71822 8.65417 4.75074 8.65888C4.78325 8.6636 4.81637 8.66184 4.8482 8.65371C4.88003 8.64558 4.90994 8.63123 4.93621 8.6115C4.96247 8.59177 4.98458 8.56704 5.00126 8.53873C5.03506 8.48171 5.04483 8.4136 5.02842 8.34937C5.01202 8.28514 4.97077 8.23006 4.91376 8.19624L4.58251 7.99999L4.91351 7.80374C4.94235 7.7873 4.96763 7.76529 4.98787 7.73898C5.00811 7.71267 5.02291 7.68259 5.03141 7.6505C5.0399 7.61841 5.04192 7.58495 5.03734 7.55208C5.03277 7.5192 5.02169 7.48756 5.00476 7.45901C4.98783 7.43046 4.96538 7.40556 4.93873 7.38578C4.91207 7.36599 4.88174 7.35172 4.84951 7.34378C4.81728 7.33584 4.78379 7.3344 4.751 7.33955C4.7182 7.34469 4.68676 7.35631 4.65851 7.37374L4.34201 7.56124V7.19324C4.34201 7.12693 4.31567 7.06334 4.26878 7.01646C4.2219 6.96957 4.15831 6.94324 4.09201 6.94324C4.0257 6.94324 3.96211 6.96957 3.91523 7.01646C3.86834 7.06334 3.84201 7.12693 3.84201 7.19324V7.56124L3.52576 7.37374C3.4975 7.35631 3.46606 7.34469 3.43327 7.33955C3.40047 7.3344 3.36698 7.33584 3.33475 7.34378C3.30252 7.35172 3.27219 7.36599 3.24553 7.38578C3.21888 7.40556 3.19643 7.43046 3.1795 7.45901C3.16257 7.48756 3.15149 7.5192 3.14692 7.55208C3.14234 7.58495 3.14436 7.61841 3.15286 7.6505C3.16135 7.68259 3.17615 7.71267 3.19639 7.73898C3.21664 7.76529 3.24191 7.7873 3.27076 7.80374L3.60176 7.99999L3.27076 8.19624C3.21374 8.23006 3.1725 8.28514 3.15609 8.34937C3.13968 8.4136 3.1492 8.48171 3.18301 8.53873ZM5.78826 8.53873C5.80498 8.56699 5.82711 8.59167 5.85338 8.61136C5.87965 8.63106 5.90955 8.64538 5.94136 8.6535C5.97317 8.66163 6.00628 8.66341 6.03877 8.65873C6.07127 8.65405 6.10253 8.64301 6.13076 8.62624L6.44726 8.43874V8.80674C6.44726 8.87304 6.4736 8.93663 6.52048 8.98351C6.56736 9.0304 6.63095 9.05674 6.69726 9.05674C6.76356 9.05674 6.82715 9.0304 6.87403 8.98351C6.92092 8.93663 6.94726 8.87304 6.94726 8.80674V8.43874L7.26401 8.62624C7.29221 8.64307 7.32347 8.65417 7.35599 8.65888C7.3885 8.6636 7.42162 8.66184 7.45345 8.65371C7.48528 8.64558 7.51519 8.63123 7.54146 8.6115C7.56772 8.59177 7.58983 8.56704 7.60651 8.53873C7.64031 8.48171 7.65008 8.4136 7.63367 8.34937C7.61727 8.28514 7.57602 8.23006 7.51901 8.19624L7.18751 7.99999L7.51851 7.80374C7.54735 7.7873 7.57263 7.76529 7.59287 7.73898C7.61311 7.71267 7.62791 7.68259 7.63641 7.6505C7.6449 7.61841 7.64692 7.58495 7.64234 7.55208C7.63777 7.5192 7.62669 7.48756 7.60976 7.45901C7.59283 7.43046 7.57038 7.40556 7.54373 7.38578C7.51707 7.36599 7.48674 7.35172 7.45451 7.34378C7.42228 7.33584 7.38879 7.3344 7.356 7.33955C7.3232 7.34469 7.29176 7.35631 7.26351 7.37374L6.94701 7.56124V7.19324C6.94701 7.12693 6.92067 7.06334 6.87378 7.01646C6.8269 6.96957 6.76331 6.94324 6.69701 6.94324C6.6307 6.94324 6.56711 6.96957 6.52023 7.01646C6.47334 7.06334 6.44701 7.12693 6.44701 7.19324V7.56124L6.13051 7.37374C6.10225 7.35631 6.07081 7.34469 6.03802 7.33955C6.00522 7.3344 5.97173 7.33584 5.9395 7.34378C5.90727 7.35172 5.87694 7.36599 5.85028 7.38578C5.82363 7.40556 5.80118 7.43046 5.78425 7.45901C5.76732 7.48756 5.75624 7.5192 5.75167 7.55208C5.74709 7.58495 5.74911 7.61841 5.75761 7.6505C5.7661 7.68259 5.7809 7.71267 5.80114 7.73898C5.82139 7.76529 5.84667 7.7873 5.87551 7.80374L6.20676 7.99999L5.87576 8.19624C5.81874 8.23006 5.7775 8.28514 5.76109 8.34937C5.74468 8.4136 5.75445 8.48171 5.78826 8.53873ZM8.39351 8.53873C8.41023 8.56699 8.43236 8.59167 8.45863 8.61136C8.4849 8.63106 8.5148 8.64538 8.54661 8.6535C8.57842 8.66163 8.61153 8.66341 8.64402 8.65873C8.67652 8.65405 8.70778 8.64301 8.73601 8.62624L9.05276 8.43874V8.80674C9.05276 8.87304 9.0791 8.93663 9.12598 8.98351C9.17286 9.0304 9.23645 9.05674 9.30276 9.05674C9.36906 9.05674 9.43265 9.0304 9.47953 8.98351C9.52642 8.93663 9.55276 8.87304 9.55276 8.80674V8.43874L9.86926 8.62624C9.89746 8.64307 9.92872 8.65417 9.96124 8.65888C9.99375 8.6636 10.0269 8.66184 10.0587 8.65371C10.0905 8.64558 10.1204 8.63123 10.1467 8.6115C10.173 8.59177 10.1951 8.56704 10.2118 8.53873C10.2456 8.48171 10.2553 8.4136 10.2389 8.34937C10.2225 8.28514 10.1813 8.23006 10.1243 8.19624L9.79276 7.99999L10.1238 7.80374C10.1526 7.7873 10.1779 7.76529 10.1981 7.73898C10.2184 7.71267 10.2332 7.68259 10.2417 7.6505C10.2502 7.61841 10.2522 7.58495 10.2476 7.55208C10.243 7.5192 10.2319 7.48756 10.215 7.45901C10.1981 7.43046 10.1756 7.40556 10.149 7.38578C10.1223 7.36599 10.092 7.35172 10.0598 7.34378C10.0275 7.33584 9.99404 7.3344 9.96125 7.33955C9.92845 7.34469 9.89701 7.35631 9.86876 7.37374L9.55251 7.56124V7.19324C9.55251 7.12693 9.52617 7.06334 9.47928 7.01646C9.4324 6.96957 9.36881 6.94324 9.30251 6.94324C9.2362 6.94324 9.17261 6.96957 9.12573 7.01646C9.07884 7.06334 9.05251 7.12693 9.05251 7.19324V7.56124L8.73576 7.37374C8.7075 7.35631 8.67606 7.34469 8.64327 7.33955C8.61047 7.3344 8.57698 7.33584 8.54475 7.34378C8.51252 7.35172 8.48219 7.36599 8.45553 7.38578C8.42888 7.40556 8.40643 7.43046 8.3895 7.45901C8.37257 7.48756 8.36149 7.5192 8.35692 7.55208C8.35234 7.58495 8.35436 7.61841 8.36286 7.6505C8.37135 7.68259 8.38615 7.71267 8.40639 7.73898C8.42664 7.76529 8.45191 7.7873 8.48076 7.80374L8.81251 7.99999L8.48151 8.19624C8.42449 8.23006 8.38324 8.28514 8.36684 8.34937C8.35043 8.4136 8.3602 8.48171 8.39401 8.53873H8.39351ZM10.9988 8.53873C11.0155 8.56699 11.0376 8.59167 11.0639 8.61136C11.0902 8.63106 11.1201 8.64538 11.1519 8.6535C11.1837 8.66163 11.2168 8.66341 11.2493 8.65873C11.2818 8.65405 11.313 8.64301 11.3413 8.62624L11.658 8.43874V8.80674C11.658 8.87304 11.6843 8.93663 11.7312 8.98351C11.7781 9.0304 11.8417 9.05674 11.908 9.05674C11.9743 9.05674 12.0379 9.0304 12.0848 8.98351C12.1317 8.93663 12.158 8.87304 12.158 8.80674V8.43874L12.4743 8.62624C12.5025 8.64307 12.5337 8.65417 12.5662 8.65888C12.5987 8.6636 12.6319 8.66184 12.6637 8.65371C12.6955 8.64558 12.7254 8.63123 12.7517 8.6115C12.778 8.59177 12.8001 8.56704 12.8168 8.53873C12.8506 8.48171 12.8603 8.4136 12.8439 8.34937C12.8275 8.28514 12.7863 8.23006 12.7293 8.19624L12.3983 7.99999L12.7293 7.80374C12.7581 7.7873 12.7834 7.76529 12.8036 7.73898C12.8239 7.71267 12.8387 7.68259 12.8472 7.6505C12.8556 7.61841 12.8577 7.58495 12.8531 7.55208C12.8485 7.5192 12.8374 7.48756 12.8205 7.45901C12.8036 7.43046 12.7811 7.40556 12.7545 7.38578C12.7278 7.36599 12.6975 7.35172 12.6653 7.34378C12.633 7.33584 12.5995 7.3344 12.5667 7.33955C12.534 7.34469 12.5025 7.35631 12.4743 7.37374L12.158 7.56124V7.19324C12.158 7.12693 12.1317 7.06334 12.0848 7.01646C12.0379 6.96957 11.9743 6.94324 11.908 6.94324C11.8417 6.94324 11.7781 6.96957 11.7312 7.01646C11.6843 7.06334 11.658 7.12693 11.658 7.19324V7.56124L11.3413 7.37374C11.313 7.35631 11.2816 7.34469 11.2488 7.33955C11.216 7.3344 11.1825 7.33584 11.1503 7.34378C11.118 7.35172 11.0877 7.36599 11.061 7.38578C11.0344 7.40556 11.0119 7.43046 10.995 7.45901C10.9781 7.48756 10.967 7.5192 10.9624 7.55208C10.9578 7.58495 10.9599 7.61841 10.9684 7.6505C10.9769 7.68259 10.9917 7.71267 11.0119 7.73898C11.0321 7.76529 11.0574 7.7873 11.0863 7.80374L11.4175 7.99999L11.0865 8.19624C11.0295 8.23006 10.9882 8.28514 10.9718 8.34937C10.9554 8.4136 10.965 8.48171 10.9988 8.53873Z" fill="white"/>
</svg>
