<svg width="18" height="22" viewBox="0 0 18 22" fill="none" xmlns="http://www.w3.org/2000/svg">
    <path d="M10.3117 4.1575C10.1957 4.1575 10.0844 4.11141 10.0024 4.02936C9.92033 3.94731 9.87424 3.83603 9.87424 3.72V2.25C9.87424 1.76787 9.48136 1.375 8.99924 1.375C8.51711 1.375 8.12424 1.76787 8.12424 2.25V3.72C8.12424 3.83603 8.07814 3.94731 7.9961 4.02936C7.91405 4.11141 7.80277 4.1575 7.68674 4.1575C7.5707 4.1575 7.45942 4.11141 7.37738 4.02936C7.29533 3.94731 7.24924 3.83603 7.24924 3.72V2.25C7.24924 1.28487 8.03411 0.5 8.99924 0.5C9.96436 0.5 10.7492 1.28487 10.7492 2.25V3.72C10.7492 3.83603 10.7031 3.94731 10.6211 4.02936C10.539 4.11141 10.4278 4.1575 10.3117 4.1575ZM8.99924 21.5C7.31049 21.5 5.93674 20.1262 5.93674 18.4375C5.93674 18.3215 5.98283 18.2102 6.06488 18.1281C6.14692 18.0461 6.2582 18 6.37424 18C6.49027 18 6.60155 18.0461 6.6836 18.1281C6.76564 18.2102 6.81174 18.3215 6.81174 18.4375C6.81174 19.6432 7.79349 20.625 8.99924 20.625C10.205 20.625 11.1867 19.6432 11.1867 18.4375C11.1867 18.3215 11.2328 18.2102 11.3149 18.1281C11.3969 18.0461 11.5082 18 11.6242 18C11.7403 18 11.8515 18.0461 11.9336 18.1281C12.0156 18.2102 12.0617 18.3215 12.0617 18.4375C12.0617 20.1262 10.688 21.5 8.99924 21.5Z" fill="#676565"/>
    <path d="M16.4367 18.875H1.56171C1.29385 18.8741 1.03266 18.7913 0.81315 18.6378C0.593635 18.4843 0.426268 18.2674 0.333467 18.0161C0.240666 17.7648 0.226862 17.4912 0.293904 17.2318C0.360946 16.9725 0.505633 16.7398 0.708585 16.565C1.3873 15.9937 1.93283 15.2808 2.30693 14.4764C2.68104 13.6719 2.87465 12.7954 2.87421 11.9082V9.25C2.87421 5.8725 5.62171 3.125 8.99921 3.125C12.3767 3.125 15.1242 5.8725 15.1242 9.25V11.9082C15.1242 13.7046 15.9108 15.3995 17.2828 16.5589C17.4881 16.7325 17.6352 16.965 17.7041 17.225C17.7731 17.4849 17.7605 17.7597 17.6683 18.0123C17.576 18.2649 17.4084 18.4831 17.1882 18.6373C16.9679 18.7916 16.7056 18.8746 16.4367 18.875ZM8.99921 4C6.10384 4 3.74921 6.35462 3.74921 9.25V11.9082C3.75018 12.9212 3.52976 13.922 3.10338 14.8408C2.67701 15.7596 2.05498 16.5742 1.28083 17.2274C1.21209 17.2851 1.16275 17.3625 1.1395 17.4492C1.11626 17.5359 1.12024 17.6276 1.1509 17.712C1.18157 17.7963 1.23743 17.8692 1.31092 17.9207C1.38441 17.9722 1.47196 17.9999 1.56171 18H16.4367C16.5261 18 16.6134 17.9726 16.6868 17.9215C16.7602 17.8704 16.8162 17.798 16.8472 17.7141C16.8781 17.6302 16.8827 17.5388 16.8601 17.4522C16.8376 17.3657 16.7891 17.2881 16.7211 17.23C15.9462 16.5766 15.3235 15.7618 14.8966 14.8425C14.4696 13.9233 14.2486 12.9218 14.2492 11.9082V9.25C14.2492 6.35462 11.8946 4 8.99921 4Z" fill="#676565"/>
</svg>
