<svg width="10" height="13" viewBox="0 0 10 13" fill="none" xmlns="http://www.w3.org/2000/svg">
    <path d="M2.56168 0.642778C2.58195 0.631368 2.57667 0.624215 2.64785 0.657764C2.71904 0.691483 2.83212 0.779186 2.94315 0.899417C3.16471 1.14192 3.38712 1.50925 3.50292 1.75176C3.5065 1.75976 3.51092 1.76674 3.51518 1.77373C3.84181 2.33673 3.98248 2.76673 3.98691 3.03751C3.99151 3.3076 3.91947 3.42426 3.68991 3.55607L3.09625 3.89768C2.71001 4.11992 2.52779 4.51825 2.48249 4.88984C2.43685 5.2616 2.5048 5.6228 2.67016 5.90839L4.13302 8.42982C4.2994 8.71473 4.5804 8.95383 4.92661 9.10063C5.27283 9.24759 5.71066 9.28915 6.09673 9.06708L6.69107 8.72716C6.92063 8.59535 7.05755 8.59161 7.29069 8.73057C7.52451 8.86953 7.82781 9.20502 8.15444 9.76769C8.15904 9.77586 8.16347 9.78284 8.16875 9.79085C8.32167 10.0112 8.52995 10.3865 8.63042 10.699C8.68032 10.8547 8.6999 10.9954 8.6936 11.0742C8.68662 11.1522 8.68492 11.1434 8.66431 11.1556L8.21387 11.4141C7.08139 11.9063 6.04394 11.7956 5.11598 11.3133C4.1853 10.8309 3.37639 9.95723 2.81338 8.93254C2.81134 8.93067 2.81066 8.92795 2.80879 8.92641L1.57583 6.80058C1.57481 6.79786 1.5731 6.79616 1.57225 6.79326C0.961904 5.796 0.604278 4.66215 0.648555 3.61976C0.693173 2.5789 1.11756 1.62931 2.11312 0.899076L2.56168 0.642778ZM2.92289 0.0773883C2.72789 -0.0137211 2.45916 -0.0404579 2.23931 0.0862438L1.76264 0.360594C1.75175 0.366725 1.74204 0.373026 1.73233 0.379156C0.584523 1.21907 0.0559183 2.38816 0.00448826 3.59353C-0.0474526 4.79822 0.355132 6.04156 1.01963 7.12841L2.24663 9.24181C2.24731 9.24181 2.24834 9.24181 2.24834 9.24266L2.25004 9.24811C2.86396 10.3607 3.74406 11.3259 4.81711 11.8835C5.89186 12.4412 7.17233 12.5704 8.4775 12.0013C8.48908 11.9969 8.4998 11.9916 8.51036 11.9862L8.98737 11.712C9.20722 11.5853 9.31826 11.3421 9.33631 11.1287C9.35487 10.9145 9.31144 10.7084 9.24554 10.5037C9.11645 10.0993 8.89302 9.70842 8.70706 9.43816C8.35488 8.83462 8.01684 8.41433 7.62447 8.18068C7.43507 8.06688 7.21861 8.00596 6.99765 8.00425C6.7767 8.00255 6.55933 8.06012 6.36818 8.17097L5.77384 8.51174C5.59861 8.61255 5.39459 8.60182 5.18019 8.51089C4.96493 8.41961 4.7667 8.23654 4.69194 8.10898L3.22908 5.58755C3.15517 5.46017 3.09574 5.19723 3.12333 4.96715C3.1516 4.73606 3.24407 4.55572 3.4193 4.45473L4.01194 4.11396C4.39903 3.89189 4.64017 3.48573 4.63285 3.02712C4.62484 2.57157 4.42832 2.06783 4.07665 1.46055C3.93429 1.16696 3.70677 0.779357 3.42101 0.467711C3.27608 0.308994 3.11771 0.168498 2.92289 0.0773883Z" fill="white"/>
</svg>
