<svg width="24" height="24" viewBox="0 0 24 24" fill="none" xmlns="http://www.w3.org/2000/svg">
    <path d="M20.0139 3.98618C17.8733 1.84568 15.0272 0.666748 12 0.666748C8.97279 0.666748 6.12667 1.84564 3.98608 3.98618C1.84559 6.12676 0.666656 8.97289 0.666656 12.0001C0.666656 15.0273 1.84554 17.8734 3.98608 20.014C6.12667 22.1545 8.97279 23.3334 12 23.3334C15.0272 23.3334 17.8733 22.1545 20.0139 20.014C22.1544 17.8734 23.3333 15.0273 23.3333 12.0001C23.3333 8.97289 22.1544 6.12676 20.0139 3.98618ZM5.58537 19.6721C5.95963 16.452 8.72811 13.966 12 13.966C13.7248 13.966 15.3468 14.638 16.5668 15.8579C17.5975 16.8887 18.2475 18.2347 18.4147 19.6719C16.6768 21.1275 14.439 22.0053 12 22.0053C9.56093 22.0053 7.32335 21.1277 5.58537 19.6721ZM12 12.598C10.1021 12.598 8.55776 11.0538 8.55776 9.15586C8.55776 7.25775 10.1021 5.71362 12 5.71362C13.8979 5.71362 15.4422 7.25775 15.4422 9.15586C15.4422 11.0538 13.8979 12.5981 12 12.5981V12.598ZM19.5579 18.5492C19.2166 17.1751 18.5072 15.9199 17.5058 14.9189C16.6896 14.1026 15.7239 13.4902 14.6708 13.1065C15.9368 12.2479 16.7703 10.7973 16.7703 9.15586C16.7703 6.52555 14.6303 4.3855 12 4.3855C9.36968 4.3855 7.22963 6.52555 7.22963 9.15586C7.22963 10.7982 8.06387 12.2493 9.33095 13.1077C8.36199 13.4608 7.46537 14.0068 6.69391 14.7255C5.57673 15.7658 4.80098 17.0924 4.44128 18.5482C2.91792 16.792 1.99478 14.5019 1.99478 12.0001C1.99478 6.48318 6.48309 1.99487 12 1.99487C17.5169 1.99487 22.0052 6.48318 22.0052 12.0001C22.0052 14.5024 21.0817 16.7931 19.5579 18.5492Z" fill="#413E3E"/>
</svg>
