<svg width="20" height="20" viewBox="0 0 20 20" fill="none" xmlns="http://www.w3.org/2000/svg">
    <path d="M19.3074 18.5275L15.0048 14.2255C16.3279 12.7254 17.0566 10.7931 17.0534 8.79293C17.0534 6.58632 16.1943 4.51187 14.6342 2.95177C13.0741 1.39167 10.9997 0.532593 8.7936 0.532593C6.58754 0.532593 4.51254 1.39167 2.95189 2.95122C1.39124 4.51077 0.532715 6.58577 0.532715 8.79238C0.532715 10.999 1.39179 13.0729 2.95189 14.633C4.51199 16.1931 6.58644 17.0527 8.79305 17.0527C10.8141 17.0527 12.7195 16.3242 14.2256 15.0036L18.5276 19.3056C18.5786 19.3569 18.6393 19.3976 18.7061 19.4254C18.7729 19.4532 18.8446 19.4675 18.9169 19.4675C18.9893 19.4675 19.0609 19.4532 19.1278 19.4254C19.1946 19.3976 19.2552 19.3569 19.3063 19.3056C19.4095 19.2023 19.4675 19.0623 19.4675 18.9163C19.4675 18.7702 19.4095 18.6302 19.3063 18.5269L19.3074 18.5275ZM3.73057 13.8549C2.37862 12.5024 1.63409 10.7049 1.63409 8.79293C1.63409 6.88094 2.37862 5.08294 3.73057 3.73044C5.08306 2.3785 6.88051 1.63397 8.79305 1.63397C10.7056 1.63397 12.503 2.3785 13.8555 3.73044C15.2075 5.08294 15.9526 6.88039 15.9526 8.79293C15.9526 10.7055 15.2075 12.5024 13.8555 13.8549C12.503 15.2068 10.7056 15.9519 8.7936 15.9519C6.88161 15.9519 5.08251 15.2068 3.73057 13.8549Z" fill="#676565"/>
</svg>
