<svg width="24" height="24" viewBox="0 0 24 24" fill="none" xmlns="http://www.w3.org/2000/svg">
    <path fill-rule="evenodd" clip-rule="evenodd" d="M22.736 3.29697C22.7708 3.06422 22.7404 2.82639 22.6483 2.60982C22.5562 2.39325 22.406 2.2064 22.2143 2.06994C22.0225 1.93349 21.7968 1.85277 21.562 1.83671C21.3272 1.82066 21.0926 1.86989 20.884 1.97897L1.93203 11.929C1.71091 12.0441 1.52849 12.2216 1.40742 12.4395C1.28635 12.6574 1.23197 12.906 1.25104 13.1546C1.27011 13.4031 1.36179 13.6406 1.51468 13.8375C1.66757 14.0343 1.87494 14.182 2.11103 14.262L8.00003 16.281L19 5.99997L10.098 17L18.694 19.947C18.8706 20.0072 19.0581 20.0279 19.2435 20.0078C19.429 19.9877 19.6077 19.9271 19.7672 19.8305C19.9267 19.7338 20.0631 19.6033 20.1667 19.4483C20.2703 19.2932 20.3387 19.1173 20.367 18.933L22.736 3.29697ZM8.83203 17.623V20.893C8.83213 21.1385 8.90318 21.3787 9.03661 21.5848C9.17004 21.7909 9.36017 21.954 9.58414 22.0546C9.8081 22.1552 10.0564 22.1889 10.299 22.1517C10.5417 22.1145 10.7685 22.008 10.952 21.845L13.79 19.323L8.83203 17.623Z" fill="#799777"/>
</svg>
